<svg width="80" height="32" fill="none" xmlns="http://www.w3.org/2000/svg"><path d="M10.581 12.739v-1.27a9.142 9.142 0 0 0-1.256-.092C4.183 11.377 0 15.62 0 20.835a9.49 9.49 0 0 0 3.981 7.744 5.769 5.769 0 0 1-.13-.145c-1.471-1.673-2.318-3.88-2.318-6.295 0-5.14 4.008-9.28 9.048-9.4Z" fill="#25F4EE"/><path d="M10.801 26.494c2.295 0 4.203-1.886 4.288-4.193l.01-20.555 3.679.006-.01-.046A7.257 7.257 0 0 1 18.65.402h-5.066l-.008 20.594c-.085 2.306-1.956 4.158-4.25 4.158a4.186 4.186 0 0 1-1.975-.497c.773 1.09 2.03 1.837 3.451 1.837ZM25.697 8.78V7.552a6.929 6.929 0 0 1-3.837-1.158c.983 1.146 2.32 2.055 3.837 2.384Z" fill="#25F4EE"/><path d="M21.858 6.394a7.176 7.176 0 0 1-1.733-4.687h-1.392c.357 1.958 1.538 3.637 3.125 4.687ZM9.325 16.476c-2.349 0-4.297 1.977-4.297 4.359 0 1.659.966 3.1 2.321 3.823a4.33 4.33 0 0 1-.806-2.52c0-2.382 1.91-4.32 4.259-4.32.438 0 .858.074 1.256.2v-5.246a9.156 9.156 0 0 0-1.256-.092c-.075 0-.147.004-.221.006l-.035.005-.004 3.962a3.876 3.876 0 0 0-1.217-.177Z" fill="#FE2C55"/><path d="m25.697 8.698-.028-.006-.012 3.955c-2.627 0-5.05-.867-7.038-2.314l-.006 10.502c0 5.215-4.149 9.42-9.29 9.42-1.986 0-3.83-.597-5.344-1.675 1.704 1.855 4.13 3.018 6.82 3.018 5.141 0 9.324-4.243 9.324-9.458V11.696a11.934 11.934 0 0 0 7.048 2.3v-5.14c-.504 0-.997-.055-1.474-.158Z" fill="#FE2C55"/><path d="M18.646 20.834V10.392a11.933 11.933 0 0 0 7.048 2.299V8.697a7.025 7.025 0 0 1-3.838-2.303 7.17 7.17 0 0 1-3.09-4.687h-3.71l-.008 20.594c-.085 2.306-1.956 4.158-4.25 4.158a4.231 4.231 0 0 1-3.451-1.8 4.33 4.33 0 0 1-2.283-3.825c0-2.382 1.91-4.32 4.258-4.32.439 0 .859.074 1.257.2v-4.03c-5.04.12-9.104 4.313-9.104 9.454 0 2.486.951 4.75 2.504 6.44a9.18 9.18 0 0 0 5.343 1.713c5.142.003 9.324-4.24 9.324-9.457ZM30.693 3.452h8.26l-.76 2.35-2.142-.001v8.689h-2.67V5.8l-2.687.006V3.452ZM52.48 3.452h8.45l-.758 2.35-2.33-.001v8.689H55.17V5.8l-2.687.006-.002-2.354ZM39.455 6.962h2.648L42.1 14.49h-2.629l-.016-7.527ZM43.154 3.421H45.8v5.141l2.62-2.558h3.158l-3.316 3.2 3.714 5.287h-2.914l-2.478-3.666-.784.758v2.908h-2.645V3.42ZM71.179 3.421h2.645v5.141l2.62-2.558h3.158l-3.316 3.2L80 14.491h-2.914l-2.478-3.666-.784.758v2.908h-2.645V3.42ZM40.78 6.103a1.33 1.33 0 0 0 1.332-1.326 1.33 1.33 0 0 0-1.333-1.326 1.33 1.33 0 0 0-1.333 1.326 1.33 1.33 0 0 0 1.333 1.326Z" fill="#fff"/><path d="M60.591 9.984c0-2.37 1.84-4.31 4.176-4.49a5.848 5.848 0 0 0-.397-.016c-2.503 0-4.53 2.018-4.53 4.506 0 2.489 2.027 4.506 4.53 4.506.12 0 .279-.006.397-.015-2.336-.18-4.176-2.121-4.176-4.49Z" fill="#25F4EE"/><path d="M65.798 5.478c-.12 0-.281.006-.4.015 2.335.182 4.172 2.123 4.172 4.491 0 2.369-1.837 4.308-4.172 4.491.118.009.28.015.4.015 2.502 0 4.53-2.017 4.53-4.506 0-2.488-2.029-4.506-4.53-4.506Z" fill="#FE2C55"/><path d="M65.08 5.478c-2.501 0-4.53 2.018-4.53 4.506 0 2.489 2.029 4.506 4.53 4.506 2.503 0 4.531-2.017 4.531-4.506 0-2.488-2.028-4.506-4.53-4.506Zm0 6.697a2.197 2.197 0 0 1-2.202-2.19c0-1.21.986-2.192 2.203-2.192 1.216 0 2.203.98 2.203 2.191a2.198 2.198 0 0 1-2.203 2.19ZM32.203 24.816c.016.493.243.956.699 1.353.454.398 1.023.589 1.705.589 1.349 0 2.111-.701 2.257-1.609.081-1.082-.73-1.704-1.9-1.959l-1.445-.35c-1.818-.462-2.728-1.417-2.728-2.867 0-.907.357-1.64 1.072-2.213.715-.588 1.56-.875 2.55-.875 1.04 0 1.9.302 2.583.892.681.589 1.022 1.353 1.022 2.325h-1.51c0-1.082-.877-1.799-2.11-1.799-.57 0-1.057.159-1.48.462-.405.302-.617.701-.617 1.195 0 .764.536 1.273 1.592 1.529l1.461.35c2.128.526 3.2 1.72 2.989 3.44-.097.828-.488 1.513-1.153 2.054-.666.542-1.527.812-2.583.812-1.12 0-2.047-.334-2.793-.987-.747-.67-1.121-1.45-1.121-2.34h1.51v-.002ZM41.153 27.985h-1.477V16.503h1.478v5.16c.211-.415.553-.733 1.039-.94.504-.223.99-.334 1.461-.334 1.9 0 3.086 1.21 3.07 3.296v4.3h-1.478V23.78c0-1.21-.73-1.974-1.787-1.974-.6 0-1.137.175-1.607.541-.472.35-.699.892-.699 1.625v4.012ZM48.956 21.455c.764-.716 1.706-1.066 2.826-1.066s2.063.35 2.825 1.066c.764.717 1.153 1.64 1.153 2.787s-.389 2.087-1.169 2.819c-.763.716-1.705 1.082-2.81 1.082-1.103 0-2.046-.366-2.809-1.082-.762-.716-1.153-1.657-1.153-2.819 0-1.146.374-2.07 1.137-2.787Zm4.596 1.02c-.471-.446-1.072-.67-1.77-.67-.699 0-1.3.223-1.787.67-.471.445-.714 1.035-.714 1.767 0 .75.243 1.354.714 1.816.488.462 1.088.685 1.787.685.699 0 1.299-.223 1.77-.685.488-.462.731-1.067.731-1.816 0-.733-.243-1.322-.73-1.767ZM58.461 20.547v1.162c.504-.828 1.56-1.322 2.648-1.322 1.055 0 1.964.366 2.695 1.083.73.716 1.104 1.656 1.104 2.818 0 1.147-.373 2.07-1.104 2.788-.73.716-1.625 1.066-2.695 1.066-1.104 0-2.176-.445-2.648-1.273v4.729h-1.478v-11.05h1.478Zm.763 5.542c.503.43 1.072.637 1.738.637 1.413 0 2.452-.971 2.452-2.42 0-.732-.244-1.338-.715-1.8-.471-.462-1.039-.7-1.737-.7-.7 0-1.284.222-1.771.684-.472.446-.715 1.052-.715 1.816.001.748.245 1.353.748 1.783Z" fill="#fff"/></svg>